<mxfile host="app.diagrams.net" modified="2023-09-01T02:57:25.914Z" agent="Mozilla/5.0 (Windows NT 10.0; Win64; x64) AppleWebKit/537.36 (KHTML, like Gecko) Chrome/116.0.0.0 Safari/537.36 Edg/116.0.1938.69" etag="EPKWvIHP8s3rWLTg8kXG" version="21.7.1" type="github">
  <diagram name="第 1 页" id="lXrbBzzjKaKk0GrQbkSO">
    <mxGraphModel dx="1434" dy="796" grid="1" gridSize="10" guides="1" tooltips="1" connect="1" arrows="1" fold="1" page="1" pageScale="1" pageWidth="827" pageHeight="1169" math="0" shadow="0">
      <root>
        <mxCell id="0" />
        <mxCell id="1" parent="0" />
        <mxCell id="Y-qX1QnGy1_NCHg85__T-11" style="edgeStyle=orthogonalEdgeStyle;rounded=0;orthogonalLoop=1;jettySize=auto;html=1;" edge="1" parent="1" source="Y-qX1QnGy1_NCHg85__T-2" target="Y-qX1QnGy1_NCHg85__T-5">
          <mxGeometry relative="1" as="geometry" />
        </mxCell>
        <mxCell id="Y-qX1QnGy1_NCHg85__T-2" value="DCBJ05.csm.cn" style="image;aspect=fixed;perimeter=ellipsePerimeter;html=1;align=center;shadow=0;dashed=0;spacingTop=3;image=img/lib/active_directory/domain_controller.svg;" vertex="1" parent="1">
          <mxGeometry x="412.5" y="30" width="35" height="50" as="geometry" />
        </mxCell>
        <mxCell id="Y-qX1QnGy1_NCHg85__T-4" style="edgeStyle=orthogonalEdgeStyle;rounded=0;orthogonalLoop=1;jettySize=auto;html=1;" edge="1" parent="1" source="Y-qX1QnGy1_NCHg85__T-3" target="Y-qX1QnGy1_NCHg85__T-2">
          <mxGeometry relative="1" as="geometry" />
        </mxCell>
        <mxCell id="Y-qX1QnGy1_NCHg85__T-3" value="管理员账户" style="image;aspect=fixed;perimeter=ellipsePerimeter;html=1;align=center;shadow=0;dashed=0;spacingTop=3;image=img/lib/active_directory/user.svg;" vertex="1" parent="1">
          <mxGeometry x="650" y="30" width="18.5" height="50" as="geometry" />
        </mxCell>
        <mxCell id="Y-qX1QnGy1_NCHg85__T-12" style="edgeStyle=orthogonalEdgeStyle;rounded=0;orthogonalLoop=1;jettySize=auto;html=1;entryX=0.53;entryY=0.005;entryDx=0;entryDy=0;entryPerimeter=0;" edge="1" parent="1" source="Y-qX1QnGy1_NCHg85__T-5" target="Y-qX1QnGy1_NCHg85__T-7">
          <mxGeometry relative="1" as="geometry" />
        </mxCell>
        <mxCell id="Y-qX1QnGy1_NCHg85__T-5" value="1. 以管理员运行powershell - 导入AD模块" style="swimlane;whiteSpace=wrap;html=1;" vertex="1" parent="1">
          <mxGeometry x="290" y="160" width="280" height="75" as="geometry">
            <mxRectangle x="115" y="510" width="50" height="40" as="alternateBounds" />
          </mxGeometry>
        </mxCell>
        <mxCell id="Y-qX1QnGy1_NCHg85__T-6" value="import-module activedirectory&lt;br style=&quot;font-size: 16px;&quot;&gt;" style="text;html=1;align=left;verticalAlign=middle;resizable=0;points=[];autosize=1;strokeColor=none;fillColor=none;fontSize=16;" vertex="1" parent="Y-qX1QnGy1_NCHg85__T-5">
          <mxGeometry x="10" y="35" width="230" height="30" as="geometry" />
        </mxCell>
        <mxCell id="Y-qX1QnGy1_NCHg85__T-7" value="2. powershell - 查找aliyun_sase组" style="swimlane;whiteSpace=wrap;html=1;" vertex="1" parent="1">
          <mxGeometry x="70" y="290" width="440" height="580" as="geometry" />
        </mxCell>
        <mxCell id="Y-qX1QnGy1_NCHg85__T-8" value="&lt;font style=&quot;font-size: 16px;&quot;&gt;get-adgroup -filter &quot;name -like &#39;aliyun*&#39;&quot; | sort name | ft name&lt;br style=&quot;border-color: var(--border-color); text-align: left;&quot;&gt;&lt;br style=&quot;border-color: var(--border-color); text-align: left;&quot;&gt;&lt;/font&gt;&lt;div style=&quot;border-color: var(--border-color); text-align: left; font-size: 16px;&quot;&gt;&lt;font style=&quot;font-size: 16px;&quot;&gt;name&lt;/font&gt;&lt;/div&gt;&lt;div style=&quot;border-color: var(--border-color); text-align: left; font-size: 16px;&quot;&gt;&lt;font style=&quot;font-size: 16px;&quot;&gt;----&lt;/font&gt;&lt;/div&gt;&lt;div style=&quot;border-color: var(--border-color); text-align: left; font-size: 16px;&quot;&gt;&lt;font style=&quot;font-size: 16px;&quot;&gt;Aliyun_bastionhost_group&lt;/font&gt;&lt;/div&gt;&lt;div style=&quot;border-color: var(--border-color); text-align: left; font-size: 16px;&quot;&gt;&lt;font style=&quot;font-size: 16px;&quot;&gt;aliyun_sase_BD_user_group&lt;/font&gt;&lt;/div&gt;&lt;div style=&quot;border-color: var(--border-color); text-align: left; font-size: 16px;&quot;&gt;&lt;font style=&quot;font-size: 16px;&quot;&gt;aliyun_sase_bigdata_user_group&lt;/font&gt;&lt;/div&gt;&lt;div style=&quot;border-color: var(--border-color); text-align: left; font-size: 16px;&quot;&gt;&lt;font style=&quot;font-size: 16px;&quot;&gt;aliyun_sase_ccr_user_group&lt;/font&gt;&lt;/div&gt;&lt;div style=&quot;border-color: var(--border-color); text-align: left; font-size: 16px;&quot;&gt;&lt;font style=&quot;font-size: 16px;&quot;&gt;aliyun_sase_cdc_user_group&lt;/font&gt;&lt;/div&gt;&lt;div style=&quot;border-color: var(--border-color); text-align: left; font-size: 16px;&quot;&gt;&lt;font style=&quot;font-size: 16px;&quot;&gt;aliyun_sase_clientserivce_user_group&lt;/font&gt;&lt;/div&gt;&lt;div style=&quot;border-color: var(--border-color); text-align: left; font-size: 16px;&quot;&gt;&lt;font style=&quot;font-size: 16px;&quot;&gt;aliyun_sase_DFZ_user_group&lt;/font&gt;&lt;/div&gt;&lt;div style=&quot;border-color: var(--border-color); text-align: left; font-size: 16px;&quot;&gt;&lt;font style=&quot;font-size: 16px;&quot;&gt;aliyun_sase_dp_user_group&lt;/font&gt;&lt;/div&gt;&lt;div style=&quot;border-color: var(--border-color); text-align: left; font-size: 16px;&quot;&gt;&lt;font style=&quot;font-size: 16px;&quot;&gt;aliyun_sase_fieldwork_user_group&lt;/font&gt;&lt;/div&gt;&lt;div style=&quot;border-color: var(--border-color); text-align: left; font-size: 16px;&quot;&gt;&lt;font style=&quot;font-size: 16px;&quot;&gt;aliyun_sase_Financial _user_group&lt;/font&gt;&lt;/div&gt;&lt;div style=&quot;border-color: var(--border-color); text-align: left; font-size: 16px;&quot;&gt;&lt;font style=&quot;font-size: 16px;&quot;&gt;aliyun_sase_guangzhou_user_group&lt;/font&gt;&lt;/div&gt;&lt;div style=&quot;border-color: var(--border-color); text-align: left; font-size: 16px;&quot;&gt;&lt;font style=&quot;font-size: 16px;&quot;&gt;aliyun_sase_HR _user_group&lt;/font&gt;&lt;/div&gt;&lt;div style=&quot;border-color: var(--border-color); text-align: left; font-size: 16px;&quot;&gt;&lt;font style=&quot;font-size: 16px;&quot;&gt;aliyun_sase_IS _user_group&lt;/font&gt;&lt;/div&gt;&lt;div style=&quot;border-color: var(--border-color); text-align: left; font-size: 16px;&quot;&gt;&lt;font style=&quot;font-size: 16px;&quot;&gt;aliyun_sase_it_user_group&lt;/font&gt;&lt;/div&gt;&lt;div style=&quot;border-color: var(--border-color); text-align: left; font-size: 16px;&quot;&gt;&lt;font style=&quot;font-size: 16px;&quot;&gt;aliyun_sase_maket_user_group&lt;/font&gt;&lt;/div&gt;&lt;div style=&quot;border-color: var(--border-color); text-align: left; font-size: 16px;&quot;&gt;&lt;font style=&quot;font-size: 16px;&quot;&gt;aliyun_sase_moshe_group&lt;/font&gt;&lt;/div&gt;&lt;div style=&quot;border-color: var(--border-color); text-align: left; font-size: 16px;&quot;&gt;&lt;font style=&quot;font-size: 16px;&quot;&gt;aliyun_sase_office _user_group&lt;/font&gt;&lt;/div&gt;&lt;div style=&quot;border-color: var(--border-color); text-align: left; font-size: 16px;&quot;&gt;&lt;font style=&quot;font-size: 16px;&quot;&gt;aliyun_sase_quality _user_group&lt;/font&gt;&lt;/div&gt;&lt;div style=&quot;border-color: var(--border-color); text-align: left; font-size: 16px;&quot;&gt;&lt;font style=&quot;font-size: 16px;&quot;&gt;aliyun_sase_sales_user_group&lt;/font&gt;&lt;/div&gt;&lt;div style=&quot;border-color: var(--border-color); text-align: left; font-size: 16px;&quot;&gt;&lt;font style=&quot;font-size: 16px;&quot;&gt;aliyun_sase_shanghai_user_group&lt;/font&gt;&lt;/div&gt;&lt;div style=&quot;border-color: var(--border-color); text-align: left; font-size: 16px;&quot;&gt;&lt;font style=&quot;font-size: 16px;&quot;&gt;aliyun_sase_third_party_web_manager_group&lt;/font&gt;&lt;/div&gt;&lt;div style=&quot;border-color: var(--border-color); text-align: left; font-size: 16px;&quot;&gt;&lt;font style=&quot;font-size: 16px;&quot;&gt;aliyun_sase_third_party_xinzhikeji_user_group&lt;/font&gt;&lt;/div&gt;&lt;div style=&quot;border-color: var(--border-color); text-align: left; font-size: 16px;&quot;&gt;&lt;font style=&quot;font-size: 16px;&quot;&gt;aliyun_sase_tnssoprt_user_group&lt;/font&gt;&lt;/div&gt;&lt;div style=&quot;border-color: var(--border-color); text-align: left; font-size: 16px;&quot;&gt;&lt;font style=&quot;font-size: 16px;&quot;&gt;aliyun_sase_vipclient_user_group&lt;/font&gt;&lt;/div&gt;" style="text;html=1;align=center;verticalAlign=middle;resizable=0;points=[];autosize=1;strokeColor=none;fillColor=none;" vertex="1" parent="Y-qX1QnGy1_NCHg85__T-7">
          <mxGeometry x="5" y="26" width="430" height="550" as="geometry" />
        </mxCell>
        <mxCell id="Y-qX1QnGy1_NCHg85__T-9" value="Vertical Container" style="swimlane;whiteSpace=wrap;html=1;" vertex="1" parent="1">
          <mxGeometry x="170" y="930" width="460" height="70" as="geometry" />
        </mxCell>
        <mxCell id="Y-qX1QnGy1_NCHg85__T-10" value="&amp;nbsp;add-adgroupmember aliyun_sase_BD_user_group pengfeng" style="text;html=1;align=center;verticalAlign=middle;resizable=0;points=[];autosize=1;strokeColor=none;fillColor=none;fontSize=16;" vertex="1" parent="Y-qX1QnGy1_NCHg85__T-9">
          <mxGeometry y="30" width="450" height="30" as="geometry" />
        </mxCell>
        <mxCell id="Y-qX1QnGy1_NCHg85__T-13" style="edgeStyle=orthogonalEdgeStyle;rounded=0;orthogonalLoop=1;jettySize=auto;html=1;" edge="1" parent="1" target="Y-qX1QnGy1_NCHg85__T-9">
          <mxGeometry relative="1" as="geometry">
            <mxPoint x="290" y="870" as="sourcePoint" />
          </mxGeometry>
        </mxCell>
      </root>
    </mxGraphModel>
  </diagram>
</mxfile>
